<svg width="36" height="38" viewBox="0 0 36 38" fill="none" xmlns="http://www.w3.org/2000/svg">
<path d="M10.5 16.8281C10.5 16.8281 11.0793 22.2355 13.336 24.4921C15.5926 26.7487 21 27.3281 21 27.3281C21 27.3281 15.5926 27.9074 13.336 30.164C11.0793 32.4206 10.5 37.8281 10.5 37.8281C10.5 37.8281 9.92066 32.4206 7.66405 30.164C5.40743 27.9074 0 27.3281 0 27.3281C0 27.3281 5.40743 26.7487 7.66405 24.4921C9.92066 22.2355 10.5 16.8281 10.5 16.8281Z" fill="#160211"/>
<path d="M25.5 7.91403C25.5 7.91403 26.0793 13.3215 28.336 15.5781C30.5926 17.8347 36 18.414 36 18.414C36 18.414 30.5926 18.9934 28.336 21.25C26.0793 23.5066 25.5 28.914 25.5 28.914C25.5 28.914 24.9207 23.5066 22.664 21.25C20.4074 18.9934 15 18.414 15 18.414C15 18.414 20.4074 17.8347 22.664 15.5781C24.9207 13.3215 25.5 7.91403 25.5 7.91403Z" fill="#160211"/>
<path d="M10.5 0C10.5 0 11.0793 5.40743 13.336 7.66405C15.5926 9.92066 21 10.5 21 10.5C21 10.5 15.5926 11.0793 13.336 13.336C11.0793 15.5926 10.5 21 10.5 21C10.5 21 9.92066 15.5926 7.66405 13.336C5.40743 11.0793 0 10.5 0 10.5C0 10.5 5.40743 9.92066 7.66405 7.66405C9.92066 5.40743 10.5 0 10.5 0Z" fill="#160211"/>
</svg>
