<svg width="25" height="26" viewBox="0 0 25 26" fill="none" xmlns="http://www.w3.org/2000/svg">
<path d="M17.1577 14.2402C17.1577 14.2402 16.8228 10.6301 15.3399 9.10445C13.857 7.57881 10.2579 7.14139 10.2579 7.14139C10.2579 7.14139 13.868 6.80643 15.3936 5.32356C16.9192 3.84068 17.3567 0.241576 17.3567 0.241576C17.3567 0.241576 17.6916 3.85166 19.1745 5.37729C20.6574 6.90293 24.2565 7.34035 24.2565 7.34035C24.2565 7.34035 20.6464 7.6753 19.1208 9.15818C17.5951 10.6411 17.1577 14.2402 17.1577 14.2402Z" fill="white"/>
<path d="M7.07421 20.0402C7.07421 20.0402 6.73925 16.4301 5.25638 14.9044C3.7735 13.3788 0.174396 12.9414 0.174396 12.9414C0.174396 12.9414 3.78448 12.6064 5.31011 11.1235C6.83575 9.64067 7.27317 6.04156 7.27317 6.04156C7.27317 6.04156 7.60812 9.65164 9.091 11.1773C10.5739 12.7029 14.173 13.1403 14.173 13.1403C14.173 13.1403 10.5629 13.4753 9.03727 14.9582C7.51163 16.441 7.07421 20.0402 7.07421 20.0402Z" fill="white"/>
<path d="M16.9983 25.4578C16.9983 25.4578 16.6633 21.8477 15.1804 20.322C13.6976 18.7964 10.0985 18.359 10.0985 18.359C10.0985 18.359 13.7085 18.024 15.2342 16.5411C16.7598 15.0583 17.1972 11.4592 17.1972 11.4592C17.1972 11.4592 17.5322 15.0692 19.0151 16.5949C20.498 18.1205 24.0971 18.5579 24.0971 18.5579C24.0971 18.5579 20.487 18.8929 18.9613 20.3758C17.4357 21.8586 16.9983 25.4578 16.9983 25.4578Z" fill="white"/>
</svg>
