<svg width="35" height="35" viewBox="0 0 35 35" fill="none" xmlns="http://www.w3.org/2000/svg">
<path d="M34.5402 16.9179L0.930829 0.06699C0.794222 -0.00131362 0.637526 -0.0173849 0.488865 0.0187758C0.323873 0.0595642 0.181767 0.164069 0.0936599 0.309407C0.00555331 0.454745 -0.0213735 0.629074 0.0187757 0.794222L3.48217 14.9451C3.5344 15.1581 3.6911 15.3308 3.90003 15.3991L9.8344 17.4362L3.90404 19.4732C3.69511 19.5456 3.53842 19.7143 3.4902 19.9273L0.0187757 34.0982C-0.017385 34.2469 -0.0013134 34.4036 0.0669902 34.5362C0.223687 34.8536 0.609401 34.9822 0.930829 34.8255L34.5402 18.071C34.6648 18.0107 34.7652 17.9063 34.8295 17.7857C34.9862 17.4643 34.8576 17.0786 34.5402 16.9179ZM3.98038 30.0723L6.00137 21.8116L17.8621 17.7415C17.9545 17.7094 18.0308 17.6371 18.063 17.5407C18.1192 17.3719 18.0308 17.1911 17.8621 17.1308L6.00137 13.0648L3.98842 4.83619L29.2206 17.4884L3.98038 30.0723Z" fill="#456288" fill-opacity="0.5"/>
</svg>
